<?xml version="1.0" encoding="UTF-8"?>
<svg xmlns="http://www.w3.org/2000/svg" xmlns:xlink="http://www.w3.org/1999/xlink" width="800px" height="600px" viewBox="0 0 800 600" version="1.1">
<g id="surface1">
<path style=" stroke:none;fill-rule:nonzero;fill:rgb(77.254903%,13.333334%,12.156863%);fill-opacity:1;" d="M 0.0976562 81.945312 L 0.0976562 154.65625 L 83.488281 235.363281 L 181.871094 290.984375 L 200.050781 168.605469 L 181.871094 54.679688 L 130.976562 16.507812 C 77.035156 -23.9375 0.0976562 14.550781 0.0976562 81.945312 Z M 0.0976562 81.945312 "/>
<path style=" stroke:none;fill-rule:nonzero;fill:rgb(100%,72.941178%,0%);fill-opacity:1;" d="M 618.128906 54.679688 L 599.949219 170.105469 L 618.128906 290.984375 L 707.425781 246.769531 L 799.902344 154.65625 L 799.902344 81.945312 C 799.902344 14.550781 722.964844 -23.9375 669.023438 16.507812 Z M 618.128906 54.679688 "/>
<path style=" stroke:none;fill-rule:nonzero;fill:rgb(14.901961%,51.764709%,98.823529%);fill-opacity:1;" d="M 54.628906 600 L 181.871094 600 L 181.871094 290.984375 L 0.0976562 154.65625 L 0.0976562 545.46875 C 0.0976562 575.597656 24.5 600 54.628906 600 Z M 54.628906 600 "/>
<path style=" stroke:none;fill-rule:nonzero;fill:rgb(0%,67.450982%,27.843139%);fill-opacity:1;" d="M 618.128906 600 L 745.371094 600 C 775.5 600 799.902344 575.597656 799.902344 545.46875 L 799.902344 154.65625 L 618.128906 290.984375 Z M 618.128906 600 "/>
<path style=" stroke:none;fill-rule:nonzero;fill:rgb(91.37255%,25.882354%,20.784314%);fill-opacity:1;" d="M 400 218.277344 L 181.871094 54.679688 L 181.871094 290.984375 L 400 454.582031 L 618.128906 290.984375 L 618.128906 54.679688 Z M 400 218.277344 "/>
</g>
</svg>
